PathFileType	4	(X/Y/Z)	C:\Users\Basilio\Documents\Thesis Gigler\squatting_fais\c3dfiles\041\SLS_pre_back4\markers_experimental.trc
DataRate	CameraRate	NumFrames	NumMarkers	Units	OrigDataRate	OrigDataStartFrame	OrigNumFrames
200.000000	200.000000	4	64	mm	200.000000	795	1272
Frame#	Time	FHD			LBHD			RBHD			C7			T10			CLAV			LSHO			LUUPA			LMUPA			LDUPA			LLEP			LMEP			LRAD			LUL			LRFIN			RSHO			RUPA1			RMUPA			RDUPA			RLEP			RMEP			RRAD			RUL			RUFIN			LASI			RASI			USACR			LSACR			RSACR			LTHI1			LTHI2			LTHI3			LTHI4			LLFC			LMFC			LTIB1			LTIB2			LTIB3			LTIB4			LLMAL			LMMAL			LHEE			LMT1			LMT2			LMT5			RTHI			RTHI2			RTHI3			RTHI4			RLFC			RMFC			RTIB1			RTIB2			RTIB3			RTIB4			RLMAL			RMMAL			RHEE			RMT1			RMT2			RMT5			*61			*62			*63			
		X1	Y1	Z1	X2	Y2	Z2	X3	Y3	Z3	X4	Y4	Z4	X5	Y5	Z5	X6	Y6	Z6	X7	Y7	Z7	X8	Y8	Z8	X9	Y9	Z9	X10	Y10	Z10	X11	Y11	Z11	X12	Y12	Z12	X13	Y13	Z13	X14	Y14	Z14	X15	Y15	Z15	X16	Y16	Z16	X17	Y17	Z17	X18	Y18	Z18	X19	Y19	Z19	X20	Y20	Z20	X21	Y21	Z21	X22	Y22	Z22	X23	Y23	Z23	X24	Y24	Z24	X25	Y25	Z25	X26	Y26	Z26	X27	Y27	Z27	X28	Y28	Z28	X29	Y29	Z29	X30	Y30	Z30	X31	Y31	Z31	X32	Y32	Z32	X33	Y33	Z33	X34	Y34	Z34	X35	Y35	Z35	X36	Y36	Z36	X37	Y37	Z37	X38	Y38	Z38	X39	Y39	Z39	X40	Y40	Z40	X41	Y41	Z41	X42	Y42	Z42	X43	Y43	Z43	X44	Y44	Z44	X45	Y45	Z45	X46	Y46	Z46	X47	Y47	Z47	X48	Y48	Z48	X49	Y49	Z49	X50	Y50	Z50	X51	Y51	Z51	X52	Y52	Z52	X53	Y53	Z53	X54	Y54	Z54	X55	Y55	Z55	X56	Y56	Z56	X57	Y57	Z57	X58	Y58	Z58	X59	Y59	Z59	X60	Y60	Z60	X61	Y61	Z61	X62	Y62	Z62	X63	Y63	Z63	X64	Y64	Z64	

796	3.975	-25.78311729431153	1535.722900390625	-1118.842651367188	-210.8998565673829	1479.382568359375	-1184.019775390625	-183.0038146972657	1487.61376953125	-1032.190551757813	-258.7851257324219	1370.02392578125	-1108.476196289063	-410.5142822265626	1105.314086914063	-1067.245361328125	-128.8402862548828	1267.682250976563	-1117.708984375	-190.2284393310547	1365.678100585938	-1240.985717773438	-101.1669082641602	1353.553100585938	-1378.366943359375	-55.41034317016603	1360.366577148438	-1362.961791992188	-48.82581710815431	1352.489624023438	-1423.348876953125	-6.767825126647951	1349.520874023438	-1447.553344726563	27.20278358459473	1270.856811523438	-1429.52197265625	271.7301635742188	1353.78759765625	-1456.41455078125	256.0996704101563	1379.314697265625	-1523.13818359375	331.4402465820313	1400.075317382813	-1450.427124023438	-159.0483703613282	1375.355712890625	-1002.579284667969	-17.41803359985352	1354.632080078125	-885.1658325195315	3.294497013092042	1377.290405273438	-925.7416992187502	51.58719635009767	1370.439697265625	-891.611267089844	97.26370239257815	1372.036987304688	-893.255798339844	109.5305404663086	1287.271606445313	-910.4517211914065	350.7028198242188	1337.8115234375	-987.2256469726565	361.6973571777344	1372.338989257813	-921.8283691406252	415.3086547851564	1366.436889648438	-1019.648742675781	-312.5450744628907	885.1277465820315	-1170.16845703125	-337.6687011718751	859.6653442382815	-949.1599731445315	-470.4893798828126	1001.650512695313	-1064.2841796875	-492.597869873047	984.739196777344	-1095.114013671875	-500.278778076172	980.0235595703127	-1040.868530273438	-355.8274536132813	713.3613281250001	-1239.047973632813	-282.5450134277344	672.1803588867189	-1225.484985351563	-245.8234863281251	699.4141235351564	-1213.999755859375	-276.1052246093751	611.6447753906251	-1211.972900390625	-173.5176239013672	478.9914855957032	-1170.570434570313	-181.1363983154297	476.2219848632814	-1056.139282226563	-212.2346649169922	301.5628662109376	-1095.621948242188	-265.4859008789063	270.7519531250001	-1160.154174804688	-235.3584442138672	257.0324707031251	-1130.078735351563	-275.2911682128907	193.531478881836	-1091.075561523438	-364.5737609863282	126.1921310424805	-1134.8408203125	-337.2758178710938	135.3630065917969	-1047.074829101563	-441.5743713378907	112.1049118041992	-1096.512939453125	-238.7696838378907	61.21108245849611	-1049.340087890625	-227.5772247314454	55.64270401000978	-1093.933715820313	-270.5347900390626	41.76457595825196	-1152.45654296875	-456.1679077148439	613.8029785156251	-898.249938964844	-414.4868469238282	561.3944702148439	-896.781921386719	-381.8958435058594	564.0690307617189	-902.672790527344	-438.4826660156251	481.2798461914064	-916.2698974609377	-445.3743591308595	399.2933044433595	-927.3740234375002	-449.4353637695314	370.3547668457032	-1038.143432617188	-584.2635498046876	323.3271789550782	-933.6860351562502	-677.5086669921876	389.460174560547	-929.365905761719	-669.0851440429689	343.8186340332032	-925.3778076171877	-709.6118774414064	308.5242309570313	-950.2828369140627	-840.1528320312502	335.5672302246094	-940.9656372070315	-806.260437011719	309.3957519531251	-1015.307067871094	-888.3139648437502	379.4797668457032	-996.2314453125002	-830.6240844726565	170.2619323730469	-1003.025085449219	-835.832458496094	164.2138214111328	-949.9888305664065	-878.326599121094	198.0073242187501	-910.1933593750002	-4216.799804687501	853.080993652344	-3944.707031250001	nan	nan	nan	nan	nan	nan	
797	3.98	-26.76805496215821	1537.716064453125	-1118.974731445313	-211.7631378173829	1481.5927734375	-1184.146606445313	-183.7672424316407	1489.556396484375	-1032.129028320313	-259.4424438476563	1371.898315429688	-1108.682739257813	-410.453826904297	1106.721069335938	-1067.434692382813	-129.0830535888672	1269.50830078125	-1117.660522460938	-190.36669921875	1366.995361328125	-1241.361694335938	-102.6442413330078	1354.663452148438	-1379.318603515625	-56.58641052246095	1361.2490234375	-1364.175537109375	-50.13062286376955	1353.091674804688	-1424.621215820313	-8.375946044921877	1350.228881835938	-1449.029418945313	25.61833190917969	1271.495727539063	-1431.109741210938	270.6131896972657	1354.11767578125	-1457.041748046875	254.8921356201172	1379.6416015625	-1523.553466796875	329.9811096191407	1400.225952148438	-1450.631958007813	-159.4498443603516	1377.23876953125	-1002.659729003906	-18.68725776672364	1355.4228515625	-884.1456298828127	2.093864917755127	1378.178833007813	-924.4544067382815	50.59778594970705	1371.3212890625	-890.1678466796877	96.10593414306643	1372.619750976563	-891.598571777344	108.3417282104492	1287.785888671875	-908.7145996093752	349.4835510253907	1337.468017578125	-986.1467895507815	360.7844848632813	1372.260009765625	-920.9040527343752	413.5503540039064	1365.670776367188	-1018.87109375	-312.2019958496094	886.4643554687502	-1169.968505859375	-337.2440185546876	861.1229248046877	-948.8240356445315	-470.2454528808595	1003.051025390625	-1064.226440429688	-492.1832885742189	985.9395141601565	-1095.101928710938	-499.7230834960939	981.1778564453127	-1040.878295898438	-355.5820617675782	714.3734741210939	-1238.933959960938	-282.3543701171876	673.0288085937501	-1225.349365234375	-246.2669067382813	700.3838500976564	-1214.044555664063	-276.0925903320313	612.2876586914064	-1211.952026367188	-174.0152893066407	479.358612060547	-1170.540161132813	-181.7408447265625	476.4789428710939	-1056.060913085938	-212.4026031494141	301.8983154296876	-1095.726318359375	-265.8437500000001	271.0444946289063	-1160.26025390625	-235.5371551513672	257.1506652832032	-1130.276977539063	-275.3834838867188	193.6270751953126	-1091.034912109375	-365.0304870605469	125.7879028320313	-1134.83154296875	-337.2917480468751	135.3956604003907	-1047.181762695313	-441.5849914550782	112.1284942626953	-1096.533935546875	-238.7669525146485	61.23080444335939	-1049.361206054688	-227.572738647461	55.59993743896486	-1093.922485351563	-270.5407714843751	41.73952865600587	-1152.464599609375	-455.841278076172	615.2767333984376	-897.9295043945315	-414.1341247558595	562.6325683593751	-896.6674804687502	-381.8008117675782	565.5300903320314	-902.318298339844	-438.3983764648439	482.6049804687501	-916.0743408203127	-445.4119262695314	400.6442260742189	-927.0269165039065	-449.2828979492189	371.8543395996094	-1037.942138671875	-584.0465698242189	324.3630981445313	-933.6634521484377	-677.5705566406251	390.3857727050782	-929.477233886719	-668.9042358398439	344.6164855957032	-925.0989379882815	-709.4778442382814	308.9886779785157	-950.3348388671877	-840.0772094726565	336.1500854492188	-941.312194824219	-805.8746337890627	309.9121398925782	-1015.710571289063	-887.9609375000002	379.7562255859376	-996.9441528320315	-830.151794433594	170.6861724853516	-1003.272827148438	-835.1399536132815	164.8324127197266	-950.3901367187502	-877.960144042969	198.4766082763672	-910.4985961914065	-4217.286621093751	853.1289062500002	-3944.667968750001	nan	nan	nan	nan	nan	nan	
798	3.985	-27.45621871948243	1539.973388671875	-1119.277709960938	-212.3764038085938	1483.587524414063	-1184.294677734375	-184.3115234375	1491.65234375	-1032.689697265625	-260.1918640136719	1373.72021484375	-1108.949584960938	-410.4017639160157	1108.232788085938	-1067.451049804688	-129.6555938720703	1271.6015625	-1117.950073242188	-191.4169006347657	1368.95068359375	-1241.814208984375	-103.7983779907227	1355.632568359375	-1380.411865234375	-57.72614669799806	1362.350219726563	-1365.563842773438	-52.00320434570314	1354.028930664063	-1426.037231445313	-10.03285217285156	1351.014038085938	-1450.532958984375	23.17852783203125	1272.301513671875	-1432.631713867188	269.3053283691407	1354.093383789063	-1457.46435546875	253.4144744873047	1379.858642578125	-1524.171264648438	328.9626159667969	1400.283081054688	-1450.852172851563	-160.118637084961	1379.044189453125	-1002.467468261719	-19.7384147644043	1356.43359375	-883.1269531250002	1.624469757080079	1379.336547851563	-923.231628417969	49.72093200683595	1372.170166015625	-888.5600585937502	95.30367279052736	1373.411376953125	-889.8581542968752	107.3490753173828	1288.443481445313	-907.3311767578127	348.0508728027344	1336.966064453125	-984.9339599609377	359.7535400390626	1372.04736328125	-919.783630371094	411.8821411132814	1364.996948242188	-1018.172241210938	-311.6633300781251	887.854187011719	-1169.838989257813	-336.8169250488282	862.9851074218752	-948.7741699218752	-469.8882446289064	1004.365600585938	-1064.29345703125	-491.9538574218751	987.2529907226565	-1095.200317382813	-499.5785217285157	982.6009521484377	-1040.938720703125	-355.2866821289063	715.4608154296876	-1238.709838867188	-282.2358398437501	673.8833618164064	-1225.191650390625	-246.3651123046876	701.2003784179689	-1213.761962890625	-276.1505126953126	613.2583618164064	-1211.685180664063	-174.3632507324219	479.6609802246095	-1170.515502929688	-181.927734375	476.7481689453126	-1056.0185546875	-212.6881256103516	302.2747192382813	-1095.922241210938	-266.0760803222657	271.2882690429688	-1160.358642578125	-235.8039245605469	257.4450683593751	-1130.324462890625	-275.6949157714844	193.6718139648438	-1090.550170898438	-365.0528869628907	125.787353515625	-1134.881591796875	-337.2709045410157	135.4629211425782	-1047.314575195313	-441.6026916503907	112.1292037963867	-1096.5283203125	-238.7858886718751	61.24593734741212	-1049.392211914063	-227.6087493896485	55.61193847656251	-1093.967895507813	-270.5432434082032	41.73672103881837	-1152.463500976563	-455.403045654297	616.8809814453126	-897.9411621093752	-414.1098022460939	564.1830444335939	-896.3794555664065	-381.4417419433594	566.9616088867189	-901.978210449219	-438.0694274902345	484.1553649902345	-915.5871582031252	-445.2566833496095	402.0135498046876	-926.9998168945315	-448.0088195800782	372.5450744628907	-1037.2685546875	-583.7584228515626	325.5764160156251	-933.7224731445315	-677.5250244140626	391.3449707031251	-929.6074829101565	-668.7805786132814	345.6096801757813	-925.0842895507815	-709.1973266601564	309.8572998046876	-950.2780761718752	-839.7695312500002	336.6268920898438	-941.781433105469	-805.4522705078127	310.5000000000001	-1016.085876464844	-887.7523193359377	380.1187133789063	-997.3779296875002	-829.3179931640627	171.2808532714844	-1003.5634765625	-834.4600219726565	165.4352416992188	-950.662780761719	-877.532409667969	198.9938049316407	-910.8391113281252	-4216.976074218751	853.1746215820315	-3944.719238281251	nan	nan	nan	nan	nan	nan	
799	3.99	-27.82270812988282	1542.06591796875	-1119.668212890625	-213.3154907226563	1485.836181640625	-1184.664306640625	-185.3428649902344	1493.853393554688	-1032.841430664063	-260.7470703125001	1375.585205078125	-1109.242309570313	-410.3947143554689	1109.587036132813	-1067.539794921875	-130.0703887939453	1273.541625976563	-1118.13623046875	-192.0895080566407	1370.701416015625	-1242.278442382813	-105.247673034668	1356.684692382813	-1381.471435546875	-59.14138793945314	1363.253540039063	-1366.823486328125	-53.40880203247072	1354.86181640625	-1427.380737304688	-11.81206226348877	1351.73046875	-1452.290893554688	21.68713569641114	1272.859008789063	-1434.487670898438	267.4526672363282	1354.382934570313	-1458.0009765625	252.4917755126954	1379.73828125	-1524.742797851563	327.2060546875001	1400.217651367188	-1451.130615234375	-160.6725463867188	1380.788818359375	-1002.329406738281	-20.76460838317871	1357.460083007813	-881.6919555664065	0.3571077585220337	1380.391967773438	-921.948669433594	48.36895751953126	1372.909912109375	-887.001159667969	94.31221771240236	1374.1494140625	-888.0059814453127	105.9338912963867	1289.111206054688	-905.1628417968752	347.2065124511719	1335.976196289063	-983.721862792969	358.5424499511719	1371.880126953125	-918.9752197265627	410.2963256835939	1364.2578125	-1017.411560058594	-311.7128295898438	889.306335449219	-1169.791870117188	-336.2354431152344	864.6181640625002	-948.548767089844	-469.5241699218751	1005.528564453125	-1064.217407226563	-491.5709228515626	988.463317871094	-1095.161987304688	-499.2926025390626	983.9439697265627	-1041.211059570313	-355.0463867187501	716.5955200195314	-1238.507202148438	-281.7717895507813	674.3903808593751	-1225.047241210938	-245.8336334228516	701.6368408203126	-1213.536499023438	-276.2094116210938	613.8944702148439	-1211.518432617188	-174.8706817626953	480.0271301269532	-1170.499633789063	-182.4904479980469	476.9843750000001	-1056.207885742188	-212.9994354248047	302.5206909179688	-1096.096435546875	-266.4430847167969	271.5497741699219	-1160.442749023438	-236.2718658447266	257.8234252929688	-1130.43603515625	-275.6587829589844	194.0573272705079	-1091.11962890625	-365.0745239257813	125.7750015258789	-1134.946899414063	-337.2207031250001	135.4978637695313	-1047.391723632813	-441.584197998047	112.1321640014649	-1096.552368164063	-238.7787475585938	61.24487686157228	-1049.38818359375	-227.5636901855469	55.64791488647462	-1093.959350585938	-270.5390625000001	41.72572326660157	-1152.494384765625	-455.151580810547	618.2298583984376	-897.6255493164065	-413.7062988281251	565.6710815429689	-895.9261474609377	-381.1876525878907	568.5404663085939	-901.6589965820315	-437.9107971191407	485.7656555175782	-915.383728027344	-445.2772216796876	403.4597473144532	-926.3444824218752	-447.6137084960939	373.9324645996094	-1036.726806640625	-583.6116333007814	326.5732727050782	-933.6236572265627	-677.3132934570314	392.1264648437501	-929.8901367187502	-668.7242431640626	346.5274353027344	-925.108581542969	-708.8966674804689	310.8314208984376	-950.4666748046877	-839.3792724609377	337.0323181152344	-942.3992309570315	-805.1479492187502	311.1080932617188	-1016.442016601563	-887.4320068359377	380.5697631835938	-997.9487915039065	-828.4114990234377	171.6325836181641	-1003.861022949219	-833.8939208984377	166.0154876708985	-950.732849121094	-876.9152832031252	199.5600128173829	-911.4102172851565	-4217.011718750001	853.1218261718752	-3944.528808593751	nan	nan	nan	nan	nan	nan	
